<?xml version="1.0" encoding="UTF-8" standalone="no"?>
<!DOCTYPE svg PUBLIC "-//W3C//DTD SVG 1.1//EN" "http://www.w3.org/Graphics/SVG/1.1/DTD/svg11.dtd">
<svg width="100%" height="100%" viewBox="0 0 200 200" version="1.1" xmlns="http://www.w3.org/2000/svg" xmlns:xlink="http://www.w3.org/1999/xlink" xml:space="preserve" xmlns:serif="http://www.serif.com/" style="fill-rule:evenodd;clip-rule:evenodd;stroke-linejoin:round;stroke-miterlimit:2;">
    <path d="M40.625,28.125L159.375,28.125C176.042,28.125 184.375,36.458 184.375,53.125L184.375,146.875C184.375,163.542 176.042,171.875 159.375,171.875L40.625,171.875C23.958,171.875 15.625,163.542 15.625,146.875L15.625,53.125C15.625,36.458 23.958,28.125 40.625,28.125Z" style="fill:white;fill-rule:nonzero;"/>
    <g transform="matrix(1,0,0,0.662632,0,56.9308)">
        <path d="M46.875,37.695L159.375,37.695C173.958,37.695 181.25,44.987 181.25,59.57L181.25,146.875C181.25,161.458 173.958,168.75 159.375,168.75L46.875,168.75C32.292,168.75 25,161.458 25,146.875L25,59.57C25,44.987 32.292,37.695 46.875,37.695Z" style="fill:rgb(168,155,250);fill-rule:nonzero;"/>
    </g>
    <path d="M159.375,175L40.625,175C25.117,175 12.5,162.383 12.5,146.875L12.5,53.125C12.5,37.617 25.117,25 40.625,25L159.375,25C174.883,25 187.5,37.617 187.5,53.125L187.5,146.875C187.5,162.383 174.883,175 159.375,175ZM40.625,31.25C28.63,31.263 18.763,41.13 18.75,53.125L18.75,146.875C18.763,158.87 28.63,168.737 40.625,168.75L159.375,168.75C171.37,168.737 181.237,158.87 181.25,146.875L181.25,53.125C181.237,41.13 171.37,31.263 159.375,31.25L40.625,31.25Z" style="fill:rgb(51,51,51);fill-rule:nonzero;"/>
    <g transform="matrix(0.806741,0,0,0.806741,21.847,43.3949)">
        <g>
            <g>
                <path d="M46.875,81.25C46.875,93.25 56.75,103.125 68.75,103.125C80.75,103.125 90.625,93.25 90.625,81.25C90.625,69.25 80.75,59.375 68.75,59.375C56.75,59.375 46.875,69.25 46.875,81.25Z" style="fill:white;fill-rule:nonzero;"/>
                <path d="M56.25,84.375C56.25,92.947 63.303,100 71.875,100C80.447,100 87.5,92.947 87.5,84.375C87.5,75.803 80.447,68.75 71.875,68.75C63.303,68.75 56.25,75.803 56.25,84.375Z" style="fill:rgb(255,191,128);fill-rule:nonzero;"/>
                <path d="M68.75,106.25C55.035,106.25 43.75,94.965 43.75,81.25C43.75,67.535 55.035,56.25 68.75,56.25C82.465,56.25 93.75,67.535 93.75,81.25C93.735,94.959 82.459,106.235 68.75,106.25ZM68.75,62.5C58.464,62.5 50,70.964 50,81.25C50,91.536 58.464,100 68.75,100C79.036,100 87.5,91.536 87.5,81.25C87.488,70.969 79.031,62.512 68.75,62.5Z" style="fill:rgb(51,51,51);fill-rule:nonzero;"/>
            </g>
            <g>
                <path d="M103.125,130.859C103.135,121.482 99.114,112.538 92.094,106.32C86.167,112.98 77.664,116.796 68.749,116.796C60.582,116.796 52.732,113.594 46.895,107.883C40.867,114.007 37.49,122.267 37.5,130.859C37.5,137.931 43.319,143.75 50.391,143.75L90.234,143.75C97.306,143.75 103.125,137.931 103.125,130.859Z" style="fill:white;fill-rule:nonzero;"/>
                <path d="M103.25,133.033C103.25,127.271 101.924,122.92 99.148,118.867C97.276,116.124 93.531,115.321 90.699,117.057C85.086,120.527 78.9,123.414 72.076,123.414C66.131,123.414 58.318,122.5 52.457,120.561C51.832,120.357 51.179,120.253 50.521,120.253C47.618,120.253 45.079,122.276 44.43,125.105C43.883,127.449 43.744,130.078 43.744,133.033C43.744,137.305 46.674,140.695 50.158,140.695L91.564,140.695C96.486,140.695 103.252,137.305 103.252,133.033L103.25,133.033Z" style="fill:rgb(255,191,128);fill-rule:nonzero;"/>
                <path d="M90.234,146.875L50.391,146.875C41.609,146.864 34.386,139.641 34.375,130.859C34.355,121.445 38.055,112.394 44.664,105.689C45.864,104.468 47.856,104.448 49.08,105.646C54.334,110.787 61.399,113.669 68.75,113.669C76.774,113.669 84.426,110.236 89.76,104.242C90.899,102.964 92.888,102.847 94.168,103.984C101.843,110.804 106.244,120.592 106.25,130.859C106.239,139.641 99.016,146.864 90.234,146.875ZM47.15,112.289C42.913,117.547 40.608,124.106 40.625,130.859C40.631,136.214 45.036,140.619 50.391,140.625L90.234,140.625C95.589,140.619 99.994,136.214 100,130.859C99.994,123.407 97.185,116.223 92.135,110.742C79.667,122.318 60.387,122.983 47.15,112.295L47.15,112.289Z" style="fill:rgb(51,51,51);fill-rule:nonzero;"/>
            </g>
        </g>
        <g>
            <path d="M121.875,75L153.125,75C157.292,75 159.375,77.083 159.375,81.25C159.375,85.417 157.292,87.5 153.125,87.5L121.875,87.5C117.708,87.5 115.625,85.417 115.625,81.25C115.625,77.083 117.708,75 121.875,75Z" style="fill:rgb(51,51,51);fill-rule:nonzero;"/>
            <path d="M134.375,112.5L153.125,112.5C157.292,112.5 159.375,114.583 159.375,118.75C159.375,122.917 157.292,125 153.125,125L134.375,125C130.208,125 128.125,122.917 128.125,118.75C128.125,114.583 130.208,112.5 134.375,112.5Z" style="fill:rgb(51,51,51);fill-rule:nonzero;"/>
        </g>
    </g>
    <g>
        <path d="M40.625,28.125L159.375,28.125C173.09,28.125 184.375,39.41 184.375,53.125L184.375,71.875L15.625,71.875L15.625,53.125C15.625,39.41 26.91,28.125 40.625,28.125Z" style="fill:white;fill-rule:nonzero;"/>
        <path d="M46.875,37.695L159.375,37.695C171.375,37.695 181.25,47.57 181.25,59.57L181.25,68.75L34.18,68.75C29.144,68.75 25,64.606 25,59.57C25,47.57 34.875,37.695 46.875,37.695Z" style="fill:rgb(130,170,250);fill-rule:nonzero;"/>
        <path d="M187.5,75L12.5,75L12.5,53.125C12.5,37.617 25.117,25 40.625,25L159.375,25C174.883,25 187.5,37.617 187.5,53.125L187.5,75ZM18.75,68.75L181.25,68.75L181.25,53.125C181.237,41.13 171.37,31.263 159.375,31.25L40.625,31.25C28.63,31.263 18.763,41.13 18.75,53.125L18.75,68.75Z" style="fill:rgb(51,51,51);fill-rule:nonzero;"/>
    </g>
    <g>
        <path d="M65.625,15.625C73.958,15.625 78.125,19.792 78.125,28.125L78.125,34.375C78.125,42.708 73.958,46.875 65.625,46.875C57.292,46.875 53.125,42.708 53.125,34.375L53.125,28.125C53.125,19.792 57.292,15.625 65.625,15.625Z" style="fill:white;fill-rule:nonzero;"/>
        <path d="M67.285,22.07C72.559,22.07 75.195,24.707 75.195,29.98L75.195,36.035C75.195,41.309 72.559,43.945 67.285,43.945C62.012,43.945 59.375,41.309 59.375,36.035L59.375,29.98C59.375,24.707 62.012,22.07 67.285,22.07Z" style="fill:rgb(196,240,139);fill-rule:nonzero;"/>
        <path d="M65.625,50C57.057,49.99 50.01,42.943 50,34.375L50,28.125C50,19.553 57.053,12.5 65.625,12.5C74.197,12.5 81.25,19.553 81.25,28.125L81.25,34.375C81.24,42.943 74.193,49.99 65.625,50ZM65.625,18.75C60.484,18.755 56.255,22.984 56.25,28.125L56.25,34.375C56.25,39.518 60.482,43.75 65.625,43.75C70.768,43.75 75,39.518 75,34.375L75,28.125C74.995,22.984 70.766,18.755 65.625,18.75Z" style="fill:rgb(51,51,51);fill-rule:nonzero;"/>
        <path d="M134.375,15.625C142.708,15.625 146.875,19.792 146.875,28.125L146.875,34.375C146.875,42.708 142.708,46.875 134.375,46.875C126.042,46.875 121.875,42.708 121.875,34.375L121.875,28.125C121.875,19.792 126.042,15.625 134.375,15.625Z" style="fill:white;fill-rule:nonzero;"/>
        <path d="M136.035,22.07C141.309,22.07 143.945,24.707 143.945,29.98L143.945,36.035C143.945,41.309 141.309,43.945 136.035,43.945C130.762,43.945 128.125,41.309 128.125,36.035L128.125,29.98C128.125,24.707 130.762,22.07 136.035,22.07Z" style="fill:rgb(196,240,139);fill-rule:nonzero;"/>
        <path d="M134.375,50C125.807,49.99 118.76,42.943 118.75,34.375L118.75,28.125C118.75,19.553 125.803,12.5 134.375,12.5C142.947,12.5 150,19.553 150,28.125L150,34.375C149.99,42.943 142.943,49.99 134.375,50ZM134.375,18.75C129.234,18.755 125.005,22.984 125,28.125L125,34.375C125,39.518 129.232,43.75 134.375,43.75C139.518,43.75 143.75,39.518 143.75,34.375L143.75,28.125C143.745,22.984 139.516,18.755 134.375,18.75Z" style="fill:rgb(51,51,51);fill-rule:nonzero;"/>
    </g>
</svg>
