<?xml version="1.0" encoding="UTF-8" standalone="no"?>
<!DOCTYPE svg PUBLIC "-//W3C//DTD SVG 1.1//EN" "http://www.w3.org/Graphics/SVG/1.1/DTD/svg11.dtd">
<svg width="100%" height="100%" viewBox="0 0 200 200" version="1.1" xmlns="http://www.w3.org/2000/svg" xmlns:xlink="http://www.w3.org/1999/xlink" xml:space="preserve" xmlns:serif="http://www.serif.com/" style="fill-rule:evenodd;clip-rule:evenodd;stroke-linejoin:round;stroke-miterlimit:2;">
    <g id="background">
        <path d="M46.875,21.875L153.125,21.875C169.792,21.875 178.125,30.208 178.125,46.875L178.125,153.125C178.125,169.792 169.792,178.125 153.125,178.125L46.875,178.125C30.208,178.125 21.875,169.792 21.875,153.125L21.875,46.875C21.875,30.208 30.208,21.875 46.875,21.875Z" style="fill:white;fill-rule:nonzero;"/>
        <path d="M53.125,31.25L153.125,31.25C167.708,31.25 175,38.542 175,53.125L175,153.125C175,167.708 167.708,175 153.125,175L53.125,175C38.542,175 31.25,167.708 31.25,153.125L31.25,53.125C31.25,38.542 38.542,31.25 53.125,31.25Z" style="fill:rgb(255,224,122);fill-rule:nonzero;"/>
        <path d="M153.125,181.25L46.875,181.25C31.367,181.25 18.75,168.633 18.75,153.125L18.75,46.875C18.75,31.367 31.367,18.75 46.875,18.75L153.125,18.75C168.633,18.75 181.25,31.367 181.25,46.875L181.25,153.125C181.25,168.633 168.633,181.25 153.125,181.25ZM46.875,25C34.88,25.013 25.013,34.88 25,46.875L25,153.125C25.013,165.12 34.88,174.987 46.875,175L153.125,175C165.12,174.987 174.987,165.12 175,153.125L175,46.875C174.987,34.88 165.12,25.013 153.125,25L46.875,25Z" style="fill:rgb(51,51,51);fill-rule:nonzero;"/>
    </g>
    <g transform="matrix(0.777519,0,0,0.777519,18.2827,20.0165)">
        <g>
            <g transform="matrix(7.51288e-17,1.02066,-1.49084,7.59393e-17,257.171,-4.53439)">
                <path d="M160.534,96.417C160.534,94.738 158.544,93.376 156.092,93.376L54.369,93.376C51.917,93.376 49.927,94.738 49.927,96.417L49.927,108.223C49.927,109.902 51.917,111.264 54.369,111.264L156.092,111.264C158.544,111.264 160.534,109.902 160.534,108.223L160.534,96.417Z"/>
            </g>
            <g transform="matrix(5.73843e-17,0.937157,-0.981972,6.01284e-17,205.165,4.7002)">
                <path d="M160.534,96.417C160.534,94.738 159.106,93.376 157.348,93.376L53.113,93.376C51.355,93.376 49.927,94.738 49.927,96.417L49.927,108.223C49.927,109.902 51.355,111.264 53.113,111.264L157.348,111.264C159.106,111.264 160.534,109.902 160.534,108.223L160.534,96.417Z" style="fill:white;"/>
            </g>
            <g transform="matrix(5.46424e-17,0.892377,-0.753149,4.61171e-17,183.799,11.8888)">
                <path d="M160.534,96.417C160.534,94.738 159.384,93.376 157.967,93.376L52.493,93.376C51.077,93.376 49.927,94.738 49.927,96.417L49.927,108.223C49.927,109.902 51.077,111.264 52.493,111.264L157.967,111.264C159.384,111.264 160.534,109.902 160.534,108.223L160.534,96.417Z" style="fill:rgb(255,149,128);"/>
            </g>
        </g>
        <g>
            <g transform="matrix(1.02458,-1.48525e-32,0,1.42018,-2.71687,-42.066)">
                <path d="M160.534,96.417C160.534,94.738 158.645,93.376 156.319,93.376L54.142,93.376C51.816,93.376 49.927,94.738 49.927,96.417L49.927,108.223C49.927,109.902 51.816,111.264 54.142,111.264L156.319,111.264C158.645,111.264 160.534,109.902 160.534,108.223L160.534,96.417Z"/>
            </g>
            <g transform="matrix(0.939326,0,0,0.981972,5.87698,2.64965)">
                <path d="M160.534,96.417C160.534,94.738 159.11,93.376 157.355,93.376L53.106,93.376C51.351,93.376 49.927,94.738 49.927,96.417L49.927,108.223C49.927,109.902 51.351,111.264 53.106,111.264L157.355,111.264C159.11,111.264 160.534,109.902 160.534,108.223L160.534,96.417Z" style="fill:white;"/>
            </g>
            <g transform="matrix(0.898448,0,0,0.762265,12.4393,27.0952)">
                <path d="M160.534,96.417C160.534,94.738 159.378,93.376 157.954,93.376L52.507,93.376C51.083,93.376 49.927,94.738 49.927,96.417L49.927,108.223C49.927,109.902 51.083,111.264 52.507,111.264L157.954,111.264C159.378,111.264 160.534,109.902 160.534,108.223L160.534,96.417Z" style="fill:rgb(255,149,128);"/>
            </g>
        </g>
    </g>
</svg>
