<?xml version="1.0" encoding="utf-8"?>
<!DOCTYPE svg PUBLIC "-//W3C//DTD SVG 1.1//EN" "http://www.w3.org/Graphics/SVG/1.1/DTD/svg11.dtd">
<svg width="505" height="76.86007640274401" viewBox="0 0 370 56.313323304980756" class="css-1j8o68f">
    <defs id="SvgjsDefs1414"></defs>
    <g id="SvgjsG1415" featurekey="symbolFeature-0"
        <!-- transform="matrix(0.875790367531581,0,0,0.875790367531581,-8.795168631626233,-15.589069544324678)" -->
        fill="#011140">
        <g xmlns="http://www.w3.org/2000/svg">
            <path
                d="M85.3,31.9c-2.3-2.2-5.4-3.8-7.5-6.1c-0.9-1-1.4-3.4-3-3.5c-2.3-0.3-4.5,3.8-5.9,5.9c-0.2-0.6-0.7-1.1-1.5-1   c-10.3,1.5-20.8,1-31.2,1.3c-1.5,0-1.5,2.3,0,2.3C46.6,31,57.2,31,67.5,29.6c-3.2,3.5-6.6,6.8-9.9,10.2c-1.1-0.2-2.3-0.1-3.4-0.1   c-1.4,0-2.9,0-4.3,0.1c-1.4,0.2-1.4,2,0,2.1c1.4,0.2,2.9,0.1,4.3,0.1c0.3,0,0.7,0,1,0c-1.5,1.5-2.9,3.1-4.4,4.7   c-0.8,0.9-1.8,1.8-2.7,2.7c-0.2-0.7-1-1.3-1.8-0.8c-0.1,0.1-0.2,0.1-0.3,0.2c-0.4,0.3-0.6,0.8-0.3,1.3c-1.7-3.1-10.6-0.8-13.9-0.6   c-6.9,0.5-13.8,0.3-20.7,0.8c-1.3,0.1-1.3,1.9,0,2c7,0.5,14.2,0.2,21.2-0.2c3.5-0.2,7-0.7,10.6-0.8c1.1,0,2.1,0.1,3.1,0   c-2.9,2.6-5.9,5.3-7.6,8.6c-1.9,3.8-2.6,8.5-3.9,12.5c-1,2.9-2.9,5.4-3.1,8.4c0,0.6,0.6,1.3,1.3,1.3c3.3-0.4,6.4-2.1,9.6-3   c4.3-1.2,8.5-2.4,12.8-3.5c0.5-0.1,0.8-0.6,0.8-1.1c0-0.1,0-0.2,0-0.3c0-0.1,0-0.2,0-0.3c5.4-5.3,11.7-9,16.5-15   c2.7-3.3,5.3-6.7,8.2-9.9c2.5-2.8,6.1-5.3,8.3-8.2C91.8,37.2,88.2,34.6,85.3,31.9z M36.1,78.6c-2-0.4-0.8-0.6,0.1-2.9   c0-0.1,0-0.1,0.1-0.2c0.3,0.3,0.7,0.6,1,0.9c0.4,0.4,0.8,0.8,1,1.3c0.1,0.1,0.1,0.3,0.2,0.4C37.2,78.5,36.3,78.7,36.1,78.6z    M41.2,77.4c-0.1-0.2-0.3-0.4-0.6-0.5c-0.1-0.2-0.2-0.5-0.3-0.7c-0.3-0.6-0.7-0.9-1.2-1.3c-0.4-0.3-0.8-0.6-1.2-0.9   c-0.2-0.1-0.6-0.3-0.9-0.5c1-2.8,1.7-5.7,2.5-8.4c0.3-1,0.7-2,1.2-3c0.4,0.4,0.9,0.8,1.4,1.2c1.4,1.1,2.1,2.6,3.3,3.9   c1.3,1.5,2.1,3.3,3.4,4.7c0.9,1,2.1,1.7,3.3,2.4C49.7,75,44.9,76.4,41.2,77.4z M70.1,58.1c-4.6,5.7-10.9,9.3-15.8,14.6   c-1.7-1-3.2-1.9-4.4-3.6c-0.8-1.2-1.4-2.2-2.4-3.3c-1-1-1.6-2.3-2.5-3.3c-0.8-0.9-2.2-1.3-2.9-2.3c0,0-0.1-0.1-0.1-0.1   c3.2-4.7,8.2-8.5,11.9-12.6c2.2-2.4,4.5-4.8,6.7-7.1c2.2,2.3,4.7,4.3,7.1,6.4c2.2,1.9,4.3,4,6.8,5.6c0.1,0,0.1,0,0.2,0.1   C73.2,54.3,71.6,56.2,70.1,58.1z M76.9,49.8c-0.3,0.3-0.5,0.6-0.7,0.9c0-0.1-0.1-0.1-0.1-0.2c0,0-0.1-0.1-0.1-0.1   c-0.1-0.1-0.1-0.1-0.2-0.2c-4.5-3.7-8.8-8.2-13.6-11.4c1.8-1.8,3.5-3.6,5.3-5.4c1.6,2.6,3.4,5.1,5.7,7.1c2.3,2,4.9,3.7,7.3,5.6   C79.1,47.3,77.9,48.5,76.9,49.8z M85.5,40.7c-1,1.3-2.2,2.6-3.4,3.8c-2.4-1.9-5-3.6-7.3-5.6c-2.1-1.9-3.5-4.6-5.6-6.4   c0,0,0,0,0-0.1c-0.1-0.1-0.3-0.2-0.4-0.3c0,0,0,0,0,0c0.4-0.5,0.9-0.9,1.3-1.4c1.1-1.2,2-2.3,3-3.7c2.1-3,1-1.6,3,0.7   C79.3,31.2,89.5,35.3,85.5,40.7z">
            </path>
            <path
                d="M13.4,20.5c7.8,0.5,15.6,0.8,23.5,0.6c6.5-0.1,12.9,1.1,19.3,0.9c1.6-0.1,1.6-2.5,0-2.5c-0.1,0-0.2,0-0.3,0c0,0,0,0,0,0   c-6.3,0.2-12.6-1-19-0.9c-7.8,0.2-15.8-0.8-23.5-0.2C12,18.5,12,20.5,13.4,20.5z">
            </path>
            <path
                d="M62.2,20.6c4.1,0.2,8.1-0.3,12.2-0.3c1.6,0,1.6-2.5,0-2.5c-4.1,0-8.1,0.3-12.2,0.6C60.8,18.5,60.8,20.5,62.2,20.6z">
            </path>
            <path
                d="M12.3,31.1c2.7,0.4,5.5-0.1,8.2,0c3.4,0.1,6.9,0.1,10.3,0.1c0.1,0,0.1,0,0.2,0c0,0,0.1,0,0.1,0c0.6-0.1,0.9-0.7,0.9-1.2   c0-0.5-0.2-1.1-0.9-1.2c-0.1,0-0.1,0-0.2,0c0,0-0.1,0-0.1,0c-6.3-0.1-12.4-0.2-18.6,0.9C11.6,29.8,11.6,31,12.3,31.1z">
            </path>
            <path
                d="M25.5,42.2c5.9,0,11.9,0.2,17.8-0.4c1.6-0.2,1.6-2.6,0-2.5c-10.7,1-22.1-1.2-32.6,1.6c-1,0.3-0.8,1.7,0.2,1.7   C15.7,42.7,20.6,42.2,25.5,42.2z">
            </path>
            <path
                d="M30.6,59.9c-2.9,0.4-5.6,0.9-8.6,0.9c-3.2,0-6.3-0.1-9.5,0.3c-1.2,0.2-1.2,1.7,0,1.9c6.1,0.8,12.4,0.4,18.4-0.6   C32.3,62.1,32,59.7,30.6,59.9z">
            </path>
        </g>
    </g>
</svg>