<?xml version="1.0" encoding="UTF-8" standalone="no"?>
<!DOCTYPE svg PUBLIC "-//W3C//DTD SVG 1.1//EN" "http://www.w3.org/Graphics/SVG/1.1/DTD/svg11.dtd">
<svg width="100%" height="100%" viewBox="0 0 179 40" version="1.1" xmlns="http://www.w3.org/2000/svg" xmlns:xlink="http://www.w3.org/1999/xlink" xml:space="preserve" xmlns:serif="http://www.serif.com/" style="fill-rule:evenodd;clip-rule:evenodd;stroke-linejoin:round;stroke-miterlimit:2;">
    <g transform="matrix(1.29057,0,0,1.29057,-36.5056,-6.80349)">
        <g id="SvgjsG1274" transform="matrix(0.332478,0,0,0.332478,24.3699,1.09147)">
            <g>
                <path d="M100.055,37.418C97.357,34.837 93.721,32.961 91.257,30.263C90.202,29.09 89.615,26.275 87.738,26.157C85.041,25.805 82.46,30.615 80.818,33.078C80.583,32.374 79.997,31.788 79.058,31.905C66.977,33.664 54.661,33.078 42.462,33.43C40.702,33.43 40.702,36.128 42.462,36.128C54.661,36.362 67.094,36.362 79.176,34.72C75.422,38.825 71.434,42.696 67.563,46.684C66.273,46.45 64.865,46.567 63.575,46.567C61.933,46.567 60.174,46.567 58.531,46.684C56.889,46.919 56.889,49.03 58.531,49.148C60.174,49.382 61.933,49.265 63.575,49.265L64.748,49.265C62.989,51.024 61.346,52.901 59.587,54.778C58.649,55.834 57.476,56.889 56.42,57.945C56.185,57.124 55.247,56.42 54.309,57.006C54.191,57.124 54.074,57.124 53.957,57.241C53.488,57.593 53.253,58.179 53.605,58.766C51.611,55.13 41.171,57.828 37.301,58.062C29.207,58.649 21.114,58.414 13.02,59.001C11.495,59.118 11.495,61.229 13.02,61.346C21.231,61.933 29.676,61.581 37.887,61.112C41.992,60.877 46.098,60.291 50.321,60.174C51.611,60.174 52.784,60.291 53.957,60.174C50.555,63.223 47.036,66.39 45.042,70.261C42.814,74.718 41.992,80.231 40.468,84.923C39.295,88.325 37.066,91.257 36.831,94.776C36.831,95.48 37.535,96.301 38.356,96.301C42.227,95.832 45.863,93.838 49.617,92.782C54.661,91.375 59.587,89.967 64.631,88.677C65.217,88.559 65.569,87.973 65.569,87.386L65.569,86.683C71.903,80.466 79.293,76.126 84.923,69.088C88.09,65.217 91.14,61.229 94.542,57.476C97.474,54.191 101.697,51.259 104.277,47.857C107.679,43.635 103.456,40.585 100.055,37.418ZM42.344,92.196C39.998,91.726 41.406,91.492 42.462,88.794C42.462,88.677 42.462,88.677 42.579,88.559C42.931,88.911 43.4,89.263 43.752,89.615C44.221,90.084 44.69,90.554 44.925,91.14C45.042,91.257 45.042,91.492 45.159,91.609C43.635,92.078 42.579,92.313 42.344,92.196ZM48.326,90.788C48.209,90.554 47.975,90.319 47.623,90.202C47.505,89.967 47.388,89.615 47.271,89.381C46.919,88.677 46.45,88.325 45.863,87.856C45.394,87.504 44.925,87.152 44.456,86.8C44.221,86.683 43.752,86.448 43.4,86.214C44.573,82.929 45.394,79.528 46.332,76.361C46.684,75.188 47.154,74.015 47.74,72.842C48.209,73.311 48.796,73.78 49.382,74.249C51.024,75.539 51.845,77.299 53.253,78.824C54.778,80.583 55.716,82.695 57.241,84.337C58.297,85.51 59.704,86.331 61.112,87.152C58.297,87.973 52.666,89.615 48.326,90.788ZM82.225,68.15C76.83,74.836 69.44,79.058 63.692,85.275C61.698,84.102 59.939,83.046 58.531,81.052C57.593,79.645 56.889,78.472 55.716,77.182C54.543,76.009 53.839,74.484 52.784,73.311C51.845,72.255 50.203,71.786 49.382,70.613L49.265,70.496C53.018,64.983 58.883,60.525 63.223,55.716C65.804,52.901 68.502,50.086 71.082,47.388C73.663,50.086 76.595,52.432 79.41,54.895C81.991,57.124 84.454,59.587 87.386,61.464C87.504,61.464 87.504,61.464 87.621,61.581C85.862,63.692 83.985,65.921 82.225,68.15ZM90.202,58.414C89.85,58.766 89.615,59.118 89.381,59.47C89.381,59.352 89.263,59.352 89.263,59.235L88.911,58.883C83.633,54.543 78.589,49.265 72.959,45.511C75.07,43.4 77.064,41.289 79.176,39.177C81.052,42.227 83.164,45.159 85.862,47.505C88.559,49.851 91.609,51.845 94.424,54.074C92.782,55.482 91.375,56.889 90.202,58.414ZM100.289,47.74C99.116,49.265 97.709,50.79 96.301,52.197C93.486,49.969 90.436,47.975 87.738,45.629C85.275,43.4 83.633,40.233 81.17,38.122L81.17,38.004C81.052,37.887 80.818,37.77 80.701,37.652C81.17,37.066 81.756,36.597 82.225,36.01C83.516,34.603 84.571,33.312 85.744,31.67C88.208,28.151 86.917,29.794 89.263,32.491C93.017,36.597 104.981,41.406 100.289,47.74Z" style="fill:white;fill-rule:nonzero;"/>
                <path d="M15.718,24.046C24.867,24.632 34.016,24.984 43.283,24.75C50.907,24.632 58.414,26.04 65.921,25.805C67.798,25.688 67.798,22.873 65.921,22.873L65.569,22.873C58.179,23.108 50.79,21.7 43.283,21.817C34.134,22.052 24.75,20.879 15.718,21.583C14.076,21.7 14.076,24.046 15.718,24.046Z" style="fill:white;fill-rule:nonzero;"/>
                <path d="M72.959,24.163C77.768,24.398 82.46,23.811 87.269,23.811C89.146,23.811 89.146,20.879 87.269,20.879C82.46,20.879 77.768,21.231 72.959,21.583C71.317,21.7 71.317,24.046 72.959,24.163Z" style="fill:white;fill-rule:nonzero;"/>
                <path d="M14.428,36.479C17.595,36.949 20.879,36.362 24.046,36.479C28.034,36.597 32.139,36.597 36.128,36.597L36.479,36.597C37.183,36.479 37.535,35.776 37.535,35.189C37.535,34.603 37.301,33.899 36.479,33.782L36.128,33.782C28.738,33.664 21.583,33.547 14.31,34.837C13.606,34.955 13.606,36.362 14.428,36.479Z" style="fill:white;fill-rule:nonzero;"/>
                <path d="M29.911,49.499C36.831,49.499 43.869,49.734 50.79,49.03C52.666,48.796 52.666,45.981 50.79,46.098C38.239,47.271 24.867,44.69 12.551,47.975C11.378,48.326 11.612,49.969 12.785,49.969C18.416,50.086 24.163,49.499 29.911,49.499Z" style="fill:white;fill-rule:nonzero;"/>
                <path d="M35.893,70.261C32.491,70.73 29.324,71.317 25.805,71.317C22.052,71.317 18.416,71.199 14.662,71.669C13.255,71.903 13.255,73.663 14.662,73.897C21.817,74.836 29.207,74.366 36.245,73.194C37.887,72.842 37.535,70.026 35.893,70.261Z" style="fill:white;fill-rule:nonzero;"/>
            </g>
        </g>
        <g id="SvgjsG1275" transform="matrix(0.445883,0,0,0.445883,64.0962,4.61979)">
            <path d="M10.885,14.076L10.885,39.412L22.99,39.412L22.99,46.919L3.378,46.919L3.378,14.076L10.885,14.076ZM37.254,14.076L37.254,46.919L29.747,46.919L29.747,14.076L37.254,14.076ZM56.913,33.406L62.308,14.076L69.815,14.076L60.666,46.919L53.159,46.919L44.01,14.076L51.517,14.076L56.913,33.406ZM97.216,21.63L84.079,21.63L84.079,26.744L93.509,26.744L93.509,34.251L84.079,34.251L84.079,39.412L97.216,39.412L97.216,46.919L76.572,46.919L76.572,14.076L97.216,14.076L97.216,21.63ZM119.69,14.076L127.197,14.076L127.197,46.919L119.69,46.919L111.479,29.84L111.479,46.919L103.972,46.919L103.972,14.076L111.479,14.076L119.69,31.201L119.69,14.076ZM151.36,14.076C154.551,14.076 157.272,16.703 157.272,19.941L157.178,41.101C157.178,44.338 154.551,46.919 151.314,46.919L139.771,46.919C136.581,46.919 133.954,44.338 133.954,41.101L133.954,19.941C133.954,16.703 136.581,14.076 139.771,14.076L151.36,14.076ZM149.671,39.412L149.671,21.63L141.461,21.63L141.461,39.412L149.671,39.412ZM163.935,14.076L187.206,14.076L187.206,21.63L179.324,21.63L179.324,46.919L171.817,46.919L171.817,21.63L163.935,21.63L163.935,14.076ZM214.607,21.63L201.47,21.63L201.47,26.744L210.901,26.744L210.901,34.251L201.47,34.251L201.47,39.412L214.607,39.412L214.607,46.919L193.963,46.919L193.963,14.076L214.607,14.076L214.607,21.63Z" style="fill:white;fill-rule:nonzero;"/>
        </g>
    </g>
</svg>
